<svg width="370" height="244" viewBox="0 0 370 244" fill="none" xmlns="http://www.w3.org/2000/svg">
<rect x="11" y="11" width="56" height="56" rx="10" fill="#3CAB90"/>
<rect x="11" y="11" width="56" height="56" rx="10" stroke="#3CAB90" stroke-opacity="0.15" stroke-width="21"/>
<path d="M35.5 45.4167H29.0833M32.5833 39H27.3333M35.5 32.5833H29.6666M44.8333 28.5L37.1375 39.2742C36.7968 39.7511 36.6265 39.9895 36.6339 40.1883C36.6403 40.3614 36.7233 40.5226 36.8604 40.6285C37.0179 40.75 37.3109 40.75 37.897 40.75H43.6666L42.5 49.5L50.1958 38.7258C50.5364 38.2489 50.7068 38.0105 50.6994 37.8117C50.693 37.6386 50.61 37.4774 50.4729 37.3715C50.3154 37.25 50.0224 37.25 49.4363 37.25H43.6666L44.8333 28.5Z" stroke="white" stroke-width="2" stroke-linecap="round" stroke-linejoin="round"/>
<path d="M14.0128 132V101.455H33.8793V106.093H19.5462V114.386H32.8501V119.024H19.5462V127.362H33.9986V132H14.0128ZM43.845 118.577V132H38.4459V109.091H43.6064V112.984H43.8748C44.4018 111.701 45.242 110.682 46.3954 109.926C47.5588 109.17 48.9956 108.793 50.7058 108.793C52.2868 108.793 53.6639 109.131 54.8372 109.807C56.0204 110.483 56.9352 111.462 57.5815 112.745C58.2378 114.028 58.5609 115.584 58.551 117.413V132H53.1518V118.249C53.1518 116.717 52.7541 115.519 51.9587 114.654C51.1731 113.789 50.0844 113.357 48.6923 113.357C47.7477 113.357 46.9075 113.565 46.1717 113.983C45.4459 114.391 44.8741 114.982 44.4565 115.758C44.0488 116.533 43.845 117.473 43.845 118.577ZM73.3417 132.447C71.0448 132.447 69.0611 131.97 67.3907 131.016C65.7302 130.051 64.4525 128.689 63.5576 126.929C62.6627 125.159 62.2152 123.076 62.2152 120.68C62.2152 118.323 62.6627 116.255 63.5576 114.475C64.4624 112.685 65.7252 111.293 67.3459 110.299C68.9667 109.295 70.8708 108.793 73.0583 108.793C74.4702 108.793 75.8026 109.021 77.0554 109.479C78.3182 109.926 79.4319 110.622 80.3964 111.567C81.3708 112.511 82.1364 113.714 82.6932 115.176C83.25 116.628 83.5285 118.358 83.5285 120.366V122.022H64.7508V118.383H78.353C78.3431 117.349 78.1194 116.429 77.6819 115.624C77.2444 114.808 76.6329 114.167 75.8473 113.7C75.0718 113.232 74.1669 112.999 73.1329 112.999C72.0292 112.999 71.0597 113.267 70.2245 113.804C69.3892 114.331 68.738 115.027 68.2706 115.892C67.8133 116.747 67.5796 117.687 67.5696 118.711V121.888C67.5696 123.22 67.8133 124.364 68.3005 125.318C68.7877 126.263 69.4688 126.989 70.3438 127.496C71.2188 127.993 72.2429 128.241 73.4162 128.241C74.2017 128.241 74.9127 128.132 75.549 127.913C76.1854 127.685 76.7373 127.352 77.2046 126.914C77.6719 126.477 78.0249 125.935 78.2635 125.288L83.3047 125.855C82.9865 127.187 82.38 128.351 81.4851 129.345C80.6002 130.33 79.4667 131.095 78.0846 131.642C76.7025 132.179 75.1215 132.447 73.3417 132.447ZM87.2561 132V109.091H92.4912V112.909H92.7298C93.1474 111.587 93.8633 110.567 94.8776 109.852C95.9017 109.126 97.07 108.763 98.3825 108.763C98.6808 108.763 99.0139 108.778 99.3818 108.808C99.7597 108.827 100.073 108.862 100.321 108.912V113.879C100.093 113.799 99.7298 113.729 99.2327 113.67C98.7455 113.6 98.2732 113.565 97.8158 113.565C96.8314 113.565 95.9464 113.779 95.1609 114.207C94.3854 114.624 93.7739 115.206 93.3264 115.952C92.879 116.697 92.6553 117.558 92.6553 118.532V132H87.2561ZM112.088 141.068C110.149 141.068 108.484 140.805 107.092 140.278C105.7 139.761 104.581 139.065 103.736 138.19C102.891 137.315 102.304 136.345 101.976 135.281L106.838 134.103C107.057 134.55 107.375 134.993 107.793 135.43C108.21 135.878 108.772 136.246 109.478 136.534C110.194 136.832 111.094 136.982 112.178 136.982C113.709 136.982 114.977 136.609 115.981 135.863C116.985 135.127 117.487 133.914 117.487 132.224V127.884H117.219C116.94 128.44 116.533 129.012 115.996 129.599C115.469 130.185 114.768 130.678 113.893 131.075C113.028 131.473 111.939 131.672 110.627 131.672C108.867 131.672 107.271 131.259 105.839 130.434C104.417 129.599 103.283 128.356 102.438 126.705C101.603 125.045 101.185 122.967 101.185 120.471C101.185 117.955 101.603 115.832 102.438 114.102C103.283 112.362 104.422 111.045 105.854 110.15C107.286 109.245 108.881 108.793 110.641 108.793C111.984 108.793 113.087 109.021 113.952 109.479C114.827 109.926 115.524 110.468 116.041 111.104C116.558 111.731 116.95 112.322 117.219 112.879H117.517V109.091H122.842V132.373C122.842 134.332 122.374 135.952 121.44 137.235C120.505 138.518 119.227 139.477 117.607 140.114C115.986 140.75 114.146 141.068 112.088 141.068ZM112.133 127.436C113.276 127.436 114.251 127.158 115.056 126.601C115.862 126.044 116.473 125.244 116.891 124.2C117.308 123.156 117.517 121.903 117.517 120.441C117.517 118.999 117.308 117.737 116.891 116.653C116.483 115.569 115.877 114.729 115.071 114.132C114.276 113.526 113.296 113.222 112.133 113.222C110.93 113.222 109.926 113.536 109.12 114.162C108.315 114.788 107.708 115.648 107.301 116.742C106.893 117.826 106.689 119.059 106.689 120.441C106.689 121.843 106.893 123.071 107.301 124.125C107.718 125.169 108.33 125.984 109.135 126.571C109.95 127.148 110.95 127.436 112.133 127.436ZM130.891 140.591C130.155 140.591 129.474 140.531 128.848 140.412C128.231 140.303 127.739 140.173 127.371 140.024L128.624 135.818C129.409 136.047 130.11 136.156 130.727 136.146C131.343 136.136 131.885 135.942 132.353 135.565C132.83 135.197 133.233 134.58 133.561 133.715L134.023 132.477L125.715 109.091H131.443L136.723 126.392H136.961L142.256 109.091H147.998L138.826 134.774C138.398 135.987 137.831 137.026 137.125 137.891C136.419 138.766 135.554 139.433 134.53 139.89C133.516 140.357 132.303 140.591 130.891 140.591ZM166.244 101.455V132H160.711V101.455H166.244ZM176.557 118.577V132H171.158V109.091H176.318V112.984H176.587C177.114 111.701 177.954 110.682 179.107 109.926C180.271 109.17 181.707 108.793 183.418 108.793C184.999 108.793 186.376 109.131 187.549 109.807C188.732 110.483 189.647 111.462 190.293 112.745C190.95 114.028 191.273 115.584 191.263 117.413V132H185.864V118.249C185.864 116.717 185.466 115.519 184.67 114.654C183.885 113.789 182.796 113.357 181.404 113.357C180.46 113.357 179.619 113.565 178.884 113.983C178.158 114.391 177.586 114.982 177.168 115.758C176.761 116.533 176.557 117.473 176.557 118.577ZM201.311 118.577V132H195.911V109.091H201.072V112.984H201.34C201.867 111.701 202.708 110.682 203.861 109.926C205.024 109.17 206.461 108.793 208.171 108.793C209.752 108.793 211.129 109.131 212.303 109.807C213.486 110.483 214.401 111.462 215.047 112.745C215.703 114.028 216.026 115.584 216.017 117.413V132H210.617V118.249C210.617 116.717 210.22 115.519 209.424 114.654C208.639 113.789 207.55 113.357 206.158 113.357C205.213 113.357 204.373 113.565 203.637 113.983C202.911 114.391 202.34 114.982 201.922 115.758C201.514 116.533 201.311 117.473 201.311 118.577ZM230.658 132.447C228.421 132.447 226.482 131.955 224.841 130.971C223.201 129.987 221.928 128.609 221.023 126.839C220.128 125.07 219.681 123.001 219.681 120.635C219.681 118.268 220.128 116.195 221.023 114.415C221.928 112.636 223.201 111.254 224.841 110.269C226.482 109.285 228.421 108.793 230.658 108.793C232.895 108.793 234.834 109.285 236.475 110.269C238.115 111.254 239.383 112.636 240.278 114.415C241.183 116.195 241.635 118.268 241.635 120.635C241.635 123.001 241.183 125.07 240.278 126.839C239.383 128.609 238.115 129.987 236.475 130.971C234.834 131.955 232.895 132.447 230.658 132.447ZM230.688 128.122C231.901 128.122 232.915 127.789 233.731 127.123C234.546 126.447 235.152 125.542 235.55 124.408C235.958 123.275 236.162 122.012 236.162 120.62C236.162 119.218 235.958 117.95 235.55 116.817C235.152 115.673 234.546 114.763 233.731 114.087C232.915 113.411 231.901 113.073 230.688 113.073C229.445 113.073 228.411 113.411 227.586 114.087C226.77 114.763 226.159 115.673 225.751 116.817C225.353 117.95 225.155 119.218 225.155 120.62C225.155 122.012 225.353 123.275 225.751 124.408C226.159 125.542 226.77 126.447 227.586 127.123C228.411 127.789 229.445 128.122 230.688 128.122ZM265.062 109.091L256.903 132H250.937L242.779 109.091H248.536L253.801 126.109H254.04L259.319 109.091H265.062ZM273.894 132.462C272.442 132.462 271.135 132.204 269.971 131.687C268.818 131.16 267.903 130.384 267.227 129.36C266.561 128.336 266.228 127.073 266.228 125.572C266.228 124.279 266.466 123.21 266.944 122.365C267.421 121.52 268.072 120.844 268.897 120.337C269.723 119.83 270.652 119.447 271.687 119.188C272.731 118.92 273.809 118.726 274.923 118.607C276.265 118.467 277.354 118.343 278.189 118.234C279.025 118.114 279.631 117.935 280.009 117.697C280.397 117.448 280.591 117.065 280.591 116.548V116.459C280.591 115.335 280.258 114.465 279.591 113.849C278.925 113.232 277.966 112.924 276.713 112.924C275.39 112.924 274.341 113.212 273.566 113.789C272.8 114.366 272.283 115.047 272.015 115.832L266.973 115.116C267.371 113.724 268.027 112.561 268.942 111.626C269.857 110.682 270.976 109.976 272.298 109.509C273.62 109.031 275.082 108.793 276.683 108.793C277.787 108.793 278.885 108.922 279.979 109.18C281.073 109.439 282.072 109.866 282.977 110.463C283.882 111.05 284.608 111.85 285.155 112.864C285.711 113.879 285.99 115.146 285.99 116.668V132H280.799V128.853H280.62C280.292 129.489 279.83 130.086 279.233 130.643C278.647 131.19 277.906 131.632 277.011 131.97C276.126 132.298 275.087 132.462 273.894 132.462ZM275.296 128.495C276.38 128.495 277.319 128.281 278.115 127.854C278.91 127.416 279.522 126.839 279.949 126.124C280.387 125.408 280.606 124.627 280.606 123.782V121.082C280.437 121.222 280.148 121.351 279.74 121.47C279.343 121.589 278.895 121.694 278.398 121.783C277.901 121.873 277.409 121.952 276.922 122.022C276.434 122.092 276.012 122.151 275.654 122.201C274.848 122.31 274.128 122.489 273.491 122.738C272.855 122.987 272.353 123.335 271.985 123.782C271.617 124.219 271.433 124.786 271.433 125.482C271.433 126.477 271.796 127.227 272.522 127.734C273.248 128.241 274.172 128.495 275.296 128.495ZM302.018 109.091V113.267H288.849V109.091H302.018ZM292.1 103.602H297.499V125.109C297.499 125.835 297.609 126.392 297.827 126.78C298.056 127.158 298.354 127.416 298.722 127.555C299.09 127.695 299.498 127.764 299.945 127.764C300.283 127.764 300.592 127.739 300.87 127.69C301.158 127.64 301.377 127.595 301.526 127.555L302.436 131.776C302.148 131.876 301.735 131.985 301.198 132.104C300.671 132.224 300.025 132.293 299.259 132.313C297.907 132.353 296.689 132.149 295.605 131.702C294.521 131.244 293.661 130.538 293.025 129.584C292.398 128.629 292.09 127.436 292.1 126.004V103.602ZM315.441 132.447C313.203 132.447 311.264 131.955 309.624 130.971C307.983 129.987 306.711 128.609 305.806 126.839C304.911 125.07 304.463 123.001 304.463 120.635C304.463 118.268 304.911 116.195 305.806 114.415C306.711 112.636 307.983 111.254 309.624 110.269C311.264 109.285 313.203 108.793 315.441 108.793C317.678 108.793 319.617 109.285 321.257 110.269C322.898 111.254 324.166 112.636 325.061 114.415C325.965 116.195 326.418 118.268 326.418 120.635C326.418 123.001 325.965 125.07 325.061 126.839C324.166 128.609 322.898 129.987 321.257 130.971C319.617 131.955 317.678 132.447 315.441 132.447ZM315.47 128.122C316.684 128.122 317.698 127.789 318.513 127.123C319.328 126.447 319.935 125.542 320.333 124.408C320.74 123.275 320.944 122.012 320.944 120.62C320.944 119.218 320.74 117.95 320.333 116.817C319.935 115.673 319.328 114.763 318.513 114.087C317.698 113.411 316.684 113.073 315.47 113.073C314.228 113.073 313.193 113.411 312.368 114.087C311.553 114.763 310.941 115.673 310.534 116.817C310.136 117.95 309.937 119.218 309.937 120.62C309.937 122.012 310.136 123.275 310.534 124.408C310.941 125.542 311.553 126.447 312.368 127.123C313.193 127.789 314.228 128.122 315.47 128.122ZM330.16 132V109.091H335.396V112.909H335.634C336.052 111.587 336.768 110.567 337.782 109.852C338.806 109.126 339.974 108.763 341.287 108.763C341.585 108.763 341.918 108.778 342.286 108.808C342.664 108.827 342.977 108.862 343.226 108.912V113.879C342.997 113.799 342.634 113.729 342.137 113.67C341.65 113.6 341.178 113.565 340.72 113.565C339.736 113.565 338.851 113.779 338.065 114.207C337.29 114.624 336.678 115.206 336.231 115.952C335.783 116.697 335.56 117.558 335.56 118.532V132H330.16ZM364.079 115.146L359.157 115.683C359.018 115.186 358.775 114.719 358.427 114.281C358.089 113.844 357.631 113.491 357.054 113.222C356.478 112.954 355.772 112.82 354.937 112.82C353.813 112.82 352.868 113.063 352.103 113.55C351.347 114.038 350.974 114.669 350.984 115.445C350.974 116.111 351.218 116.653 351.715 117.07C352.222 117.488 353.057 117.831 354.221 118.099L358.128 118.935C360.296 119.402 361.907 120.143 362.961 121.157C364.025 122.171 364.562 123.499 364.572 125.139C364.562 126.581 364.139 127.854 363.304 128.957C362.478 130.051 361.33 130.906 359.858 131.523C358.387 132.139 356.697 132.447 354.787 132.447C351.983 132.447 349.726 131.861 348.016 130.688C346.306 129.504 345.287 127.859 344.959 125.751L350.224 125.244C350.462 126.278 350.969 127.058 351.745 127.585C352.52 128.112 353.53 128.376 354.773 128.376C356.055 128.376 357.084 128.112 357.86 127.585C358.645 127.058 359.038 126.407 359.038 125.631C359.038 124.975 358.785 124.433 358.278 124.006C357.78 123.578 357.005 123.25 355.951 123.021L352.043 122.201C349.846 121.744 348.22 120.973 347.166 119.889C346.112 118.795 345.59 117.413 345.6 115.743C345.59 114.331 345.973 113.108 346.748 112.074C347.534 111.03 348.623 110.224 350.015 109.658C351.417 109.081 353.032 108.793 354.862 108.793C357.547 108.793 359.66 109.364 361.201 110.508C362.752 111.651 363.711 113.197 364.079 115.146ZM27.6598 168.055V172.5H13.9084V168.055H27.6598ZM53.5162 160.091V164.267H40.3465V160.091H53.5162ZM43.5979 154.602H48.997V176.109C48.997 176.835 49.1064 177.392 49.3251 177.78C49.5538 178.158 49.8521 178.416 50.22 178.555C50.5879 178.695 50.9956 178.764 51.443 178.764C51.7811 178.764 52.0894 178.739 52.3678 178.69C52.6561 178.64 52.8749 178.595 53.024 178.555L53.9338 182.776C53.6455 182.876 53.2328 182.985 52.6959 183.104C52.1689 183.224 51.5226 183.293 50.757 183.313C49.4047 183.353 48.1867 183.149 47.1028 182.702C46.019 182.244 45.159 181.538 44.5226 180.584C43.8962 179.629 43.5879 178.436 43.5979 177.004V154.602ZM63.083 169.577V183H57.6838V152.455H62.9637V163.984H63.2321C63.7691 162.691 64.5993 161.672 65.7229 160.926C66.8564 160.17 68.2982 159.793 70.0482 159.793C71.6391 159.793 73.0262 160.126 74.2094 160.792C75.3926 161.458 76.3074 162.433 76.9537 163.715C77.61 164.998 77.9381 166.564 77.9381 168.413V183H72.5389V169.249C72.5389 167.707 72.1412 166.509 71.3458 165.654C70.5603 164.789 69.4566 164.357 68.0347 164.357C67.0801 164.357 66.225 164.565 65.4693 164.983C64.7236 165.391 64.137 165.982 63.7094 166.758C63.2918 167.533 63.083 168.473 63.083 169.577ZM92.7437 183.447C90.4468 183.447 88.4632 182.97 86.7927 182.016C85.1322 181.051 83.8545 179.689 82.9596 177.929C82.0647 176.159 81.6173 174.076 81.6173 171.68C81.6173 169.323 82.0647 167.255 82.9596 165.475C83.8644 163.685 85.1272 162.293 86.748 161.299C88.3687 160.295 90.2728 159.793 92.4603 159.793C93.8722 159.793 95.2046 160.021 96.4575 160.479C97.7203 160.926 98.8339 161.622 99.7984 162.567C100.773 163.511 101.538 164.714 102.095 166.176C102.652 167.628 102.93 169.358 102.93 171.366V173.022H84.1528V169.383H97.7551C97.7451 168.349 97.5214 167.429 97.0839 166.624C96.6464 165.808 96.0349 165.167 95.2494 164.7C94.4738 164.232 93.569 163.999 92.5349 163.999C91.4312 163.999 90.4617 164.267 89.6265 164.804C88.7913 165.331 88.14 166.027 87.6727 166.892C87.2153 167.747 86.9816 168.687 86.9717 169.711V172.888C86.9717 174.22 87.2153 175.364 87.7025 176.318C88.1897 177.263 88.8708 177.989 89.7458 178.496C90.6208 178.993 91.645 179.241 92.8183 179.241C93.6038 179.241 94.3147 179.132 94.9511 178.913C95.5874 178.685 96.1393 178.352 96.6066 177.914C97.0739 177.477 97.4269 176.935 97.6656 176.288L102.707 176.855C102.389 178.187 101.782 179.351 100.887 180.345C100.002 181.33 98.8687 182.095 97.4866 182.642C96.1045 183.179 94.5235 183.447 92.7437 183.447ZM116.236 191.591V160.091H121.546V163.879H121.859C122.137 163.322 122.53 162.731 123.037 162.104C123.544 161.468 124.23 160.926 125.095 160.479C125.961 160.021 127.064 159.793 128.407 159.793C130.176 159.793 131.772 160.245 133.194 161.15C134.626 162.045 135.76 163.372 136.595 165.132C137.44 166.882 137.863 169.03 137.863 171.575C137.863 174.091 137.45 176.229 136.625 177.989C135.799 179.749 134.676 181.091 133.254 182.016C131.832 182.94 130.221 183.403 128.421 183.403C127.109 183.403 126.02 183.184 125.155 182.746C124.29 182.309 123.594 181.782 123.067 181.165C122.55 180.539 122.147 179.947 121.859 179.391H121.635V191.591H116.236ZM121.531 171.545C121.531 173.027 121.74 174.325 122.157 175.438C122.585 176.552 123.196 177.422 123.992 178.048C124.797 178.665 125.772 178.973 126.915 178.973C128.108 178.973 129.108 178.655 129.913 178.018C130.718 177.372 131.325 176.492 131.733 175.379C132.15 174.255 132.359 172.977 132.359 171.545C132.359 170.124 132.155 168.861 131.747 167.757C131.34 166.653 130.733 165.788 129.928 165.162C129.122 164.536 128.118 164.222 126.915 164.222C125.762 164.222 124.782 164.526 123.977 165.132C123.171 165.739 122.56 166.589 122.142 167.683C121.735 168.776 121.531 170.064 121.531 171.545ZM141.646 183V160.091H146.881V163.909H147.12C147.537 162.587 148.253 161.567 149.268 160.852C150.292 160.126 151.46 159.763 152.773 159.763C153.071 159.763 153.404 159.778 153.772 159.808C154.15 159.827 154.463 159.862 154.711 159.912V164.879C154.483 164.799 154.12 164.729 153.623 164.67C153.135 164.6 152.663 164.565 152.206 164.565C151.221 164.565 150.336 164.779 149.551 165.207C148.775 165.624 148.164 166.206 147.716 166.952C147.269 167.697 147.045 168.558 147.045 169.532V183H141.646ZM166.508 183.447C164.271 183.447 162.332 182.955 160.691 181.971C159.051 180.987 157.778 179.609 156.873 177.839C155.978 176.07 155.531 174.001 155.531 171.635C155.531 169.268 155.978 167.195 156.873 165.415C157.778 163.636 159.051 162.254 160.691 161.269C162.332 160.285 164.271 159.793 166.508 159.793C168.745 159.793 170.684 160.285 172.325 161.269C173.965 162.254 175.233 163.636 176.128 165.415C177.033 167.195 177.485 169.268 177.485 171.635C177.485 174.001 177.033 176.07 176.128 177.839C175.233 179.609 173.965 180.987 172.325 181.971C170.684 182.955 168.745 183.447 166.508 183.447ZM166.538 179.122C167.751 179.122 168.765 178.789 169.58 178.123C170.396 177.447 171.002 176.542 171.4 175.408C171.808 174.275 172.012 173.012 172.012 171.62C172.012 170.218 171.808 168.95 171.4 167.817C171.002 166.673 170.396 165.763 169.58 165.087C168.765 164.411 167.751 164.073 166.538 164.073C165.295 164.073 164.261 164.411 163.436 165.087C162.62 165.763 162.009 166.673 161.601 167.817C161.203 168.95 161.004 170.218 161.004 171.62C161.004 173.012 161.203 174.275 161.601 175.408C162.009 176.542 162.62 177.447 163.436 178.123C164.261 178.789 165.295 179.122 166.538 179.122ZM189.729 183.403C187.93 183.403 186.319 182.94 184.897 182.016C183.475 181.091 182.351 179.749 181.526 177.989C180.701 176.229 180.288 174.091 180.288 171.575C180.288 169.03 180.706 166.882 181.541 165.132C182.386 163.372 183.525 162.045 184.957 161.15C186.388 160.245 187.984 159.793 189.744 159.793C191.086 159.793 192.19 160.021 193.055 160.479C193.92 160.926 194.606 161.468 195.113 162.104C195.621 162.731 196.013 163.322 196.292 163.879H196.515V152.455H201.93V183H196.62V179.391H196.292C196.013 179.947 195.611 180.539 195.084 181.165C194.557 181.782 193.861 182.309 192.996 182.746C192.131 183.184 191.042 183.403 189.729 183.403ZM191.236 178.973C192.379 178.973 193.354 178.665 194.159 178.048C194.964 177.422 195.576 176.552 195.993 175.438C196.411 174.325 196.62 173.027 196.62 171.545C196.62 170.064 196.411 168.776 195.993 167.683C195.586 166.589 194.979 165.739 194.174 165.132C193.378 164.526 192.399 164.222 191.236 164.222C190.033 164.222 189.028 164.536 188.223 165.162C187.417 165.788 186.811 166.653 186.403 167.757C185.996 168.861 185.792 170.124 185.792 171.545C185.792 172.977 185.996 174.255 186.403 175.379C186.821 176.492 187.432 177.372 188.238 178.018C189.053 178.655 190.052 178.973 191.236 178.973ZM221.444 173.365V160.091H226.844V183H221.609V178.928H221.37C220.853 180.211 220.003 181.26 218.819 182.075C217.646 182.891 216.199 183.298 214.479 183.298C212.978 183.298 211.65 182.965 210.497 182.299C209.354 181.623 208.459 180.643 207.812 179.361C207.166 178.068 206.843 176.507 206.843 174.678V160.091H212.242V173.842C212.242 175.294 212.64 176.447 213.435 177.303C214.231 178.158 215.275 178.585 216.567 178.585C217.363 178.585 218.133 178.391 218.879 178.004C219.625 177.616 220.236 177.039 220.714 176.273C221.201 175.498 221.444 174.528 221.444 173.365ZM241.549 183.447C239.262 183.447 237.298 182.945 235.657 181.941C234.027 180.937 232.769 179.55 231.884 177.78C231.009 176 230.571 173.952 230.571 171.635C230.571 169.308 231.019 167.255 231.914 165.475C232.808 163.685 234.071 162.293 235.702 161.299C237.343 160.295 239.281 159.793 241.519 159.793C243.378 159.793 245.024 160.136 246.455 160.822C247.897 161.498 249.046 162.457 249.901 163.7C250.756 164.933 251.243 166.375 251.362 168.026H246.202C245.993 166.922 245.496 166.002 244.71 165.266C243.935 164.521 242.896 164.148 241.593 164.148C240.49 164.148 239.52 164.446 238.685 165.043C237.85 165.629 237.198 166.474 236.731 167.578C236.274 168.682 236.045 170.004 236.045 171.545C236.045 173.107 236.274 174.449 236.731 175.572C237.188 176.686 237.83 177.546 238.655 178.153C239.49 178.749 240.47 179.048 241.593 179.048C242.389 179.048 243.1 178.898 243.726 178.6C244.362 178.292 244.894 177.849 245.322 177.273C245.75 176.696 246.043 175.995 246.202 175.17H251.362C251.233 176.79 250.756 178.227 249.931 179.48C249.105 180.723 247.982 181.697 246.56 182.403C245.138 183.099 243.468 183.447 241.549 183.447ZM266.395 160.091V164.267H253.226V160.091H266.395ZM256.477 154.602H261.876V176.109C261.876 176.835 261.986 177.392 262.204 177.78C262.433 178.158 262.731 178.416 263.099 178.555C263.467 178.695 263.875 178.764 264.322 178.764C264.66 178.764 264.969 178.739 265.247 178.69C265.535 178.64 265.754 178.595 265.903 178.555L266.813 182.776C266.525 182.876 266.112 182.985 265.575 183.104C265.048 183.224 264.402 183.293 263.636 183.313C262.284 183.353 261.066 183.149 259.982 182.702C258.898 182.244 258.038 181.538 257.402 180.584C256.775 179.629 256.467 178.436 256.477 177.004V154.602ZM287.849 166.146L282.927 166.683C282.788 166.186 282.545 165.719 282.197 165.281C281.859 164.844 281.401 164.491 280.824 164.222C280.248 163.954 279.542 163.82 278.707 163.82C277.583 163.82 276.638 164.063 275.873 164.55C275.117 165.038 274.744 165.669 274.754 166.445C274.744 167.111 274.988 167.653 275.485 168.07C275.992 168.488 276.827 168.831 277.991 169.099L281.898 169.935C284.066 170.402 285.677 171.143 286.731 172.157C287.795 173.171 288.332 174.499 288.342 176.139C288.332 177.581 287.909 178.854 287.074 179.957C286.249 181.051 285.1 181.906 283.628 182.523C282.157 183.139 280.467 183.447 278.557 183.447C275.753 183.447 273.496 182.861 271.786 181.688C270.076 180.504 269.057 178.859 268.729 176.751L273.994 176.244C274.232 177.278 274.739 178.058 275.515 178.585C276.29 179.112 277.3 179.376 278.543 179.376C279.825 179.376 280.854 179.112 281.63 178.585C282.415 178.058 282.808 177.407 282.808 176.631C282.808 175.975 282.555 175.433 282.048 175.006C281.55 174.578 280.775 174.25 279.721 174.021L275.813 173.201C273.616 172.744 271.99 171.973 270.936 170.889C269.882 169.795 269.36 168.413 269.37 166.743C269.36 165.331 269.743 164.108 270.518 163.074C271.304 162.03 272.393 161.224 273.785 160.658C275.187 160.081 276.802 159.793 278.632 159.793C281.317 159.793 283.43 160.364 284.971 161.508C286.522 162.651 287.481 164.197 287.849 166.146ZM306.26 183L299.787 160.091H305.29L309.317 176.199H309.526L313.642 160.091H319.086L323.203 176.109H323.426L327.394 160.091H332.912L326.424 183H320.801L316.506 167.518H316.193L311.897 183H306.26ZM345.328 183.447C343.031 183.447 341.047 182.97 339.377 182.016C337.716 181.051 336.439 179.689 335.544 177.929C334.649 176.159 334.201 174.076 334.201 171.68C334.201 169.323 334.649 167.255 335.544 165.475C336.448 163.685 337.711 162.293 339.332 161.299C340.953 160.295 342.857 159.793 345.044 159.793C346.456 159.793 347.789 160.021 349.042 160.479C350.304 160.926 351.418 161.622 352.382 162.567C353.357 163.511 354.122 164.714 354.679 166.176C355.236 167.628 355.515 169.358 355.515 171.366V173.022H336.737V169.383H350.339C350.329 168.349 350.105 167.429 349.668 166.624C349.23 165.808 348.619 165.167 347.833 164.7C347.058 164.232 346.153 163.999 345.119 163.999C344.015 163.999 343.046 164.267 342.211 164.804C341.375 165.331 340.724 166.027 340.257 166.892C339.799 167.747 339.566 168.687 339.556 169.711V172.888C339.556 174.22 339.799 175.364 340.287 176.318C340.774 177.263 341.455 177.989 342.33 178.496C343.205 178.993 344.229 179.241 345.402 179.241C346.188 179.241 346.899 179.132 347.535 178.913C348.172 178.685 348.723 178.352 349.191 177.914C349.658 177.477 350.011 176.935 350.25 176.288L355.291 176.855C354.973 178.187 354.366 179.351 353.471 180.345C352.586 181.33 351.453 182.095 350.071 182.642C348.689 183.179 347.108 183.447 345.328 183.447ZM19.1733 203.455V234H13.7741V203.455H19.1733ZM33.8782 234.447C31.641 234.447 29.7021 233.955 28.0615 232.971C26.4208 231.987 25.1481 230.609 24.2433 228.839C23.3484 227.07 22.9009 225.001 22.9009 222.635C22.9009 220.268 23.3484 218.195 24.2433 216.415C25.1481 214.636 26.4208 213.254 28.0615 212.269C29.7021 211.285 31.641 210.793 33.8782 210.793C36.1154 210.793 38.0544 211.285 39.695 212.269C41.3356 213.254 42.6034 214.636 43.4982 216.415C44.4031 218.195 44.8555 220.268 44.8555 222.635C44.8555 225.001 44.4031 227.07 43.4982 228.839C42.6034 230.609 41.3356 231.987 39.695 232.971C38.0544 233.955 36.1154 234.447 33.8782 234.447ZM33.908 230.122C35.1211 230.122 36.1353 229.789 36.9507 229.123C37.766 228.447 38.3725 227.542 38.7703 226.408C39.1779 225.275 39.3818 224.012 39.3818 222.62C39.3818 221.218 39.1779 219.95 38.7703 218.817C38.3725 217.673 37.766 216.763 36.9507 216.087C36.1353 215.411 35.1211 215.073 33.908 215.073C32.6651 215.073 31.6311 215.411 30.8058 216.087C29.9904 216.763 29.3789 217.673 28.9713 218.817C28.5735 219.95 28.3747 221.218 28.3747 222.62C28.3747 224.012 28.5735 225.275 28.9713 226.408C29.3789 227.542 29.9904 228.447 30.8058 229.123C31.6311 229.789 32.6651 230.122 33.908 230.122ZM68.2818 211.091L60.1234 234H54.1575L45.9992 211.091H51.7563L57.0212 228.109H57.2598L62.5396 211.091H68.2818ZM80.5407 234.447C78.2438 234.447 76.2602 233.97 74.5897 233.016C72.9292 232.051 71.6515 230.689 70.7566 228.929C69.8617 227.159 69.4143 225.076 69.4143 222.68C69.4143 220.323 69.8617 218.255 70.7566 216.475C71.6615 214.685 72.9242 213.293 74.545 212.299C76.1657 211.295 78.0698 210.793 80.2573 210.793C81.6693 210.793 83.0017 211.021 84.2545 211.479C85.5173 211.926 86.6309 212.622 87.5954 213.567C88.5698 214.511 89.3355 215.714 89.8923 217.176C90.4491 218.628 90.7275 220.358 90.7275 222.366V224.022H71.9498V220.383H85.5521C85.5421 219.349 85.3184 218.429 84.8809 217.624C84.4434 216.808 83.8319 216.167 83.0464 215.7C82.2708 215.232 81.366 214.999 80.3319 214.999C79.2282 214.999 78.2588 215.267 77.4235 215.804C76.5883 216.331 75.937 217.027 75.4697 217.892C75.0123 218.747 74.7787 219.687 74.7687 220.711V223.888C74.7687 225.22 75.0123 226.364 75.4995 227.318C75.9867 228.263 76.6679 228.989 77.5429 229.496C78.4179 229.993 79.442 230.241 80.6153 230.241C81.4008 230.241 82.1117 230.132 82.7481 229.913C83.3845 229.685 83.9363 229.352 84.4037 228.914C84.871 228.477 85.224 227.935 85.4626 227.288L90.5038 227.855C90.1856 229.187 89.5791 230.351 88.6842 231.345C87.7992 232.33 86.6657 233.095 85.2836 233.642C83.9015 234.179 82.3206 234.447 80.5407 234.447Z" fill="#101828"/>
</svg>